PathFileType	4	(X/Y/Z)	C:\Users\chris\Documents\GitHub\baseballds\vids\pitch5_Sports2D\pitch5_Sports2D_m_person02.trc
DataRate	CameraRate	NumFrames	NumMarkers	Units	OrigDataRate	OrigDataStartFrame	OrigNumFrames
30	30	9	22	m	30	93	149
Frame#	Time	Hip			RHip			RKnee			RAnkle			RBigToe			RSmallToe			RHeel			LHip			LKnee			LAnkle			LBigToe			LSmallToe			LHeel			Neck			Head			Nose			RShoulder			RElbow			RWrist			LShoulder			LElbow			LWrist		
		X1	Y1	Z1	X2	Y2	Z2	X3	Y3	Z3	X4	Y4	Z4	X5	Y5	Z5	X6	Y6	Z6	X7	Y7	Z7	X8	Y8	Z8	X9	Y9	Z9	X10	Y10	Z10	X11	Y11	Z11	X12	Y12	Z12	X13	Y13	Z13	X14	Y14	Z14	X15	Y15	Z15	X16	Y16	Z16	X17	Y17	Z17	X18	Y18	Z18	X19	Y19	Z19	X20	Y20	Z20	X21	Y21	Z21	X22	Y22	Z22
93	3.1	3.2120236681007706	1.2526369624034965	0.0	3.23255591956005	1.25061521248241	0.0	3.2471487577828397	1.1699603355218249	0.0	3.242226833368851	1.091939666037294	0.0	3.2610574434217066	1.0781986329715756	0.0	3.2632997146803753	1.07379416068771	0.0	3.236616921333905	1.0810716354094907	0.0	3.1930366279388385	1.2500989309767412	0.0	3.1767299317933975	1.1710247274981216	0.0	3.1562166231417095	1.1057059101624365	0.0	3.1597622098064084	1.0730508209357794	0.0	3.150107882069534	1.0767824078323611	0.0	3.1535705897660162	1.0992156565279487	0.0	3.2229055392505206	1.352563575713558	0.0	3.2276283300592734	1.3958855869458107	0.0	3.227443070877826	1.3779099056125843	0.0	3.2480805476674677	1.3410306586940208	0.0	3.2529203158210076	1.3038310411541214	0.0	3.268740892639846	1.2799761181055382	0.0	3.186379513534389	1.33797894056951	0.0	3.1617603518776094	1.2952156568168194	0.0	3.177416744257387	1.2694439231418257	0.0
94	3.1333333333333333	3.221050377505186	1.254509771565761	0.0	3.2406200007453743	1.2490700459159256	0.0	3.2565862549176794	1.1699566100193781	0.0	3.2605832228325515	1.0912002469951647	0.0	3.2771434935160833	1.083840819107243	0.0	3.280740399853687	1.075940765958934	0.0	3.2563785218969974	1.0782078002980149	0.0	3.2026650946474136	1.2495042873893145	0.0	3.1845567011695453	1.1745163073964378	0.0	3.1602175331564384	1.115156031759414	0.0	3.15889021244267	1.0845305129460678	0.0	3.15013317075462	1.0879672318022355	0.0	3.1571366220430312	1.1113218064789547	0.0	3.2340268632956524	1.3534994479563758	0.0	3.2396653111109117	1.390433693711539	0.0	3.2395604517484493	1.3782073484966182	0.0	3.2573494142167734	1.3412536001162052	0.0	3.261517961019717	1.3069242833744188	0.0	3.280081384337266	1.2835159567959125	0.0	3.1969980779091434	1.339169981215156	0.0	3.1695530361766804	1.2991598993107938	0.0	3.180230645611346	1.266418263397957	0.0
95	3.1666666666666665	3.230614476009432	1.2536259251200927	0.0	3.249892253900245	1.2455187420484972	0.0	3.2667775939069847	1.1685244338653964	0.0	3.2751076395275645	1.0920694083093332	0.0	3.288064775072579	1.08606788611936	0.0	3.2926331789678405	1.07649603718899	0.0	3.2717826834508394	1.0773144951459204	0.0	3.2126363270619094	1.246448006769792	0.0	3.1932058538654267	1.1750990439575388	0.0	3.1659203455823834	1.124872031356586	0.0	3.1592075709086402	1.096743755223824	0.0	3.1524890048323955	1.1000430381180628	0.0	3.161953450010902	1.1227191568009398	0.0	3.244521844351887	1.3519060495089454	0.0	3.251228089183855	1.3838033949579303	0.0	3.2516702226400334	1.375100886226349	0.0	3.267314761701751	1.3387660771456087	0.0	3.2706610045617115	1.3060960039944571	0.0	3.2922227015846866	1.2848785024221543	0.0	3.207902499393675	1.3373168150279462	0.0	3.178469732799427	1.2991518835682327	0.0	3.189853617331234	1.2672819340789518	0.0
96	3.2	3.2408378455433566	1.2502456122504761	0.0	3.2606003311682823	1.2425700953013448	0.0	3.277071112386179	1.1653587973605666	0.0	3.284896934186728	1.0914719648977924	0.0	3.294608169499462	1.0839273990758886	0.0	3.3001681459478007	1.075038019244064	0.0	3.282001016188897	1.0767534002483867	0.0	3.2226375520844543	1.2436745438491583	0.0	3.202689159391921	1.1726570066532165	0.0	3.174522064691847	1.135941928632364	0.0	3.162905575740216	1.1087565068099727	0.0	3.1583446592470277	1.1118415402232464	0.0	3.169315082568018	1.1366524927501067	0.0	3.2546546211705643	1.3476077960047474	0.0	3.2627839199958792	1.380702873919243	0.0	3.2627415131783217	1.36997862025751	0.0	3.2780849506565355	1.3335916017081195	0.0	3.2809894120775067	1.300750207440833	0.0	3.3050862665749734	1.2833720271795785	0.0	3.21871271194886	1.3327023703720922	0.0	3.188404119190364	1.296070033256729	0.0	3.206210528867121	1.2708734900497796	0.0
97	3.2333333333333334	3.2512326361777824	1.2450822715617447	0.0	3.271422566402353	1.2402289694192148	0.0	3.2867180864388885	1.1613747599380009	0.0	3.289971820805199	1.0893750480642939	0.0	3.2988639690974053	1.0801511298722102	0.0	3.304677694611898	1.0733319647145585	0.0	3.286760846162535	1.0769710417726217	0.0	3.232163298613473	1.241490915864976	0.0	3.2132865309880314	1.1677102080352175	0.0	3.1864064255100626	1.146948990918973	0.0	3.170794482409687	1.1204430280175155	0.0	3.1672066896112567	1.1224869193451044	0.0	3.1800710245507946	1.1521639274149362	0.0	3.2649791377927673	1.3410225669825642	0.0	3.2749663476141246	1.3800881487438614	0.0	3.273143939611169	1.36400022230386	0.0	3.2892230304002665	1.32604419753912	0.0	3.2926042081321025	1.2915594383326574	0.0	3.3178868794033356	1.2793441039003168	0.0	3.2290262113470463	1.326343529861988	0.0	3.198091686286755	1.2918426358367445	0.0	3.2224356084854624	1.2722047246400867	0.0
98	3.2666666666666666	3.26120044118824	1.2395437132003366	0.0	3.2812215129618014	1.2372056172424937	0.0	3.2950681674039743	1.1578113986422676	0.0	3.291359087112065	1.0871272081132286	0.0	3.3021721782891937	1.0771738505821185	0.0	3.306974331331592	1.0717181536120197	0.0	3.2873108287011394	1.07701760909123	0.0	3.241234627617634	1.2384371731867383	0.0	3.2257777809416743	1.1616525449867097	0.0	3.200864448973362	1.1548266962602973	0.0	3.1833183967515137	1.1299053512036155	0.0	3.1796920252612444	1.1308039291216438	0.0	3.193809679153585	1.1638070706813424	0.0	3.2754054384514952	1.3339250717943776	0.0	3.2872142280725622	1.3776263188646103	0.0	3.283944425869815	1.3575409017261062	0.0	3.300296910781964	1.3175682304954597	0.0	3.305263325499172	1.2800175827763796	0.0	3.3296057813762796	1.2745853078693836	0.0	3.238861601783466	1.320343650926865	0.0	3.207024133270515	1.28798871013083	0.0	3.232953692915779	1.2688457307564465	0.0
99	3.3	3.270182834613922	1.2354583702137345	0.0	3.289606651987469	1.233351658080156	0.0	3.301583953818107	1.154977642934281	0.0	3.2909329308684048	1.0852341720930962	0.0	3.303594315618589	1.0751097657533877	0.0	3.3071236386905176	1.0695882216567916	0.0	3.286306700814589	1.0754987051437623	0.0	3.2500874393363346	1.234200810112855	0.0	3.2404450793216024	1.1566274181775968	0.0	3.2162832331529336	1.1578993250607335	0.0	3.2004925265460207	1.1336299223102846	0.0	3.196727416629547	1.1346524204528006	0.0	3.208842345759606	1.1682395583562943	0.0	3.2850561098462108	1.3286840332351668	0.0	3.297859444527283	1.3716290580786108	0.0	3.295391746921098	1.3516121559228764	0.0	3.3109881640913668	1.3106479638973099	0.0	3.3189323217177855	1.2687746315833528	0.0	3.339381996426197	1.271569316896557	0.0	3.248192815328238	1.3168462732391049	0.0	3.215737230944369	1.2850644296490301	0.0	3.239827312073668	1.2645130762419061	0.0
100	3.3333333333333335	3.2780731759665085	1.234101674403243	0.0	3.2969378813285517	1.230538794819796	0.0	3.306153956904418	1.1529778648002047	0.0	3.290232167616521	1.0837923550340394	0.0	3.3025227278460587	1.0736834785777993	0.0	3.305631780832849	1.067917655201093	0.0	3.285280516847007	1.0736075078629912	0.0	3.2586267683923134	1.2311473064278344	0.0	3.2557080603800057	1.1548500451832062	0.0	3.231146040900524	1.156653769898869	0.0	3.2204514790836862	1.129014041743211	0.0	3.216537958608461	1.1317377088855616	0.0	3.223548678662197	1.1663721217681422	0.0	3.2934405788736294	1.3269899307376931	0.0	3.30651321684904	1.3663654604155613	0.0	3.30670057925441	1.348632732370854	0.0	3.320879394976374	1.3076347288610422	0.0	3.3328427493956516	1.261455432614776	0.0	3.3450090896291655	1.2719622996049789	0.0	3.2566080152851944	1.3166916757450473	0.0	3.224675358294294	1.283338471691943	0.0	3.248227196630759	1.2642532365278027	0.0
101	3.3666666666666667	3.2853237803331075	1.2357207012686617	0.0	3.303739365242636	1.2305009347039826	0.0	3.3092677823777397	1.1529746751949055	0.0	3.2901268348983566	1.0841213854972482	0.0	3.3003695980340453	1.0734944411326257	0.0	3.303817308562562	1.0685221976566914	0.0	3.284295656829254	1.0740756505724403	0.0	3.266562429672844	1.2314554391359473	0.0	3.269334729117013	1.1574237373529621	0.0	3.2454939569955124	1.1517581425160712	0.0	3.2407315533679926	1.1177303178400153	0.0	3.2362183683819943	1.1225160988803378	0.0	3.238466373348247	1.1589603096066692	0.0	3.3011449514976614	1.3293381498932277	0.0	3.31428775500772	1.366213187256933	0.0	3.3168579224840387	1.3502404430892596	0.0	3.3297248838628404	1.3094473396518003	0.0	3.3451239930494077	1.2605102970154516	0.0	3.344288197499131	1.2751360858090242	0.0	3.2641818364577477	1.319634844325935	0.0	3.2336637931846326	1.2837462343930575	0.0	3.2587745324360524	1.2687722486956399	0.0
